<?xml version="1.0" standalone="no"?><!DOCTYPE svg PUBLIC "-//W3C//DTD SVG 1.1//EN" "http://www.w3.org/Graphics/SVG/1.1/DTD/svg11.dtd"><svg t="1727091240123" class="icon" viewBox="0 0 1024 1024" version="1.1" xmlns="http://www.w3.org/2000/svg" p-id="14604" xmlns:xlink="http://www.w3.org/1999/xlink" width="200" height="200"><path d="M305.5 428.9c0 24.6 19.9 44.5 44.5 44.5s44.5-19.9 44.5-44.5-19.9-44.5-44.5-44.5c-24.6 0.1-44.5 20-44.5 44.5z m0 0M631.6 428.9c0 24.6 19.9 44.5 44.5 44.5s44.5-19.9 44.5-44.5-19.9-44.5-44.5-44.5c-24.6 0.1-44.5 20-44.5 44.5z m0 0" fill="#cccccc" p-id="14605"></path><path d="M513 98.2c-229.2 0-415 185.8-415 415s185.8 415 415 415 415-185.8 415-415-185.8-415-415-415z m243.6 658.6c-31.7 31.7-68.5 56.5-109.6 73.9-42.3 18-87.4 27-134 27-46.6 0-91.7-9.1-134.1-27-41-17.3-77.9-42.2-109.6-73.9-31.7-31.7-56.5-68.5-73.9-109.6-17.9-42.3-27-87.4-27-134 0-46.6 9.1-91.7 27-134.1 17.3-41 42.2-77.9 73.9-109.6 31.7-31.7 68.5-56.5 109.6-73.9 42.3-17.9 87.4-27 134-27 46.6 0 91.7 9.1 134.1 27 41 17.3 77.9 42.2 109.6 73.9 31.7 31.7 56.5 68.5 73.9 109.6 17.9 42.3 27 87.4 27 134 0 46.6-9.1 91.7-27 134.1-17.3 41.2-42.2 78.1-73.9 109.6z m0 0" fill="#cccccc" p-id="14606"></path><path d="M653.8 532.7h-44.6c-3.9 0-7.2 3-7.5 6.9-3.5 45.9-42 82.1-88.7 82.1-46.8 0-85.3-36.2-88.7-82.1-0.3-3.9-3.6-6.9-7.5-6.9h-44.6c-4.3 0-7.6 3.5-7.4 7.8 4.1 78.1 69 140.4 148.2 140.4 79.2 0 144.1-62.3 148.2-140.4 0.2-4.3-3.1-7.8-7.4-7.8z m0 0" fill="#cccccc" p-id="14607"></path></svg>