<?xml version="1.0" standalone="no"?><!DOCTYPE svg PUBLIC "-//W3C//DTD SVG 1.1//EN" "http://www.w3.org/Graphics/SVG/1.1/DTD/svg11.dtd"><svg t="1727070434290" class="icon" viewBox="0 0 1024 1024" version="1.1" xmlns="http://www.w3.org/2000/svg" p-id="1583" xmlns:xlink="http://www.w3.org/1999/xlink" width="200" height="200"><path d="M837.818182 0a186.181818 186.181818 0 0 1 186.181818 186.181818v651.636364a186.181818 186.181818 0 0 1-186.181818 186.181818H186.181818a186.181818 186.181818 0 0 1-186.181818-186.181818V186.181818a186.181818 186.181818 0 0 1 186.181818-186.181818h651.636364z m0 46.545455H186.181818a139.636364 139.636364 0 0 0-139.543273 134.4L46.545455 186.181818v651.636364a139.636364 139.636364 0 0 0 134.4 139.543273L186.181818 977.454545h651.636364a139.636364 139.636364 0 0 0 139.543273-134.4L977.454545 837.818182V186.181818a139.636364 139.636364 0 0 0-134.4-139.543273L837.818182 46.545455z" fill="#282C33" p-id="1584"></path></svg>