<?xml version="1.0" standalone="no"?><!DOCTYPE svg PUBLIC "-//W3C//DTD SVG 1.1//EN" "http://www.w3.org/Graphics/SVG/1.1/DTD/svg11.dtd"><svg t="1727070407000" class="icon" viewBox="0 0 1024 1024" version="1.1" xmlns="http://www.w3.org/2000/svg" p-id="1366" xmlns:xlink="http://www.w3.org/1999/xlink" width="200" height="200"><path d="M787.692308 0a236.307692 236.307692 0 0 1 236.307692 236.307692v551.384616a236.307692 236.307692 0 0 1-236.307692 236.307692H236.307692a236.307692 236.307692 0 0 1-236.307692-236.307692V236.307692a236.307692 236.307692 0 0 1 236.307692-236.307692h551.384616z m67.938461 207.005538c-18.904615-15.556923-39.620923-13.036308-54.311384 7.010462l-371.2 412.514462-202.988308-198.892308-3.623385-4.332308c-15.36-15.990154-35.918769-14.493538-53.287384 0-18.825846 15.753846-14.887385 36.588308 0 56.516923l195.544615 272.935385 4.647385 5.710769c30.523077 34.697846 81.565538 39.345231 117.326769 9.452308 5.513846-4.647385 10.476308-9.964308 14.808615-15.872l350.011077-487.463385 3.072-4.765538c11.027692-19.692308 17.526154-38.439385 0-52.775385z" p-id="1367" fill="#409eff"></path></svg>